<?xml version="1.0" encoding="UTF-8" standalone="no"?>
<svg width="40px" height="36px" viewBox="0 0 40 36" version="1.1" xmlns="http://www.w3.org/2000/svg" xmlns:xlink="http://www.w3.org/1999/xlink">
    <!-- Generator: sketchtool 40.3 (33839) - http://www.bohemiancoding.com/sketch -->
    <title>EAC7309C-5708-4AD0-AAD9-7F8EB6031913</title>
    <desc>Created with sketchtool.</desc>
    <defs></defs>
    <g id="Tagging" stroke="none" stroke-width="1" fill="none" fill-rule="evenodd">
        <g id="2.1-Home-Copy-6" transform="translate(-1039.000000, -350.000000)">
            <g id="Place-search" transform="translate(1039.000000, 350.000000)">
                <g id="ic_place-search">
                    <path d="M17.908503,0.859060377 C8.50717803,0.859060377 0.859060377,8.50717803 0.859060377,17.908503 C0.859060377,27.3098279 8.50717803,34.9579456 17.908503,34.9579456 C27.3098279,34.9579456 34.9579456,27.3098279 34.9579456,17.908503 C34.9579456,8.50717803 27.3098279,0.859060377 17.908503,0.859060377 L17.908503,0.859060377 Z M12.5890769,3.71969455 C11.6448001,4.85544973 10.827476,6.29284889 10.1717282,7.95844828 C9.0821377,7.82100354 8.00566212,7.6562797 6.94597369,7.46112915 C8.50875183,5.82175967 10.4314044,4.53124802 12.5890769,3.71969455 L12.5890769,3.71969455 Z M5.57414931,9.11990877 C6.87462833,9.38535548 8.19766508,9.61093272 9.54378414,9.78877152 C8.91216787,11.9322799 8.52658817,14.3606451 8.45104602,16.9616032 L2.78538509,16.9616032 C2.96689608,14.0495584 3.97360009,11.3594186 5.57414931,9.11990877 L5.57414931,9.11990877 Z M5.57414931,26.6970972 C3.9730755,24.4565381 2.96637148,21.7674476 2.78590969,18.856452 L8.45104602,18.856452 C8.52711277,21.4568854 8.91216787,23.8852507 9.54378414,26.0298083 C8.19766508,26.2065979 6.87462833,26.4321751 5.57414931,26.6970972 L5.57414931,26.6970972 Z M6.94649829,28.3564014 C8.00618672,28.1596771 9.0821377,27.9954778 10.1722528,27.8585577 C10.8280006,29.5246817 11.6453247,30.9620809 12.5896015,32.0973114 C10.4314044,31.2862826 8.50875183,29.9947217 6.94649829,28.3564014 L6.94649829,28.3564014 Z M16.9610786,32.9356194 C15.0636068,32.4377757 13.3612855,30.4731553 12.1562834,27.6455708 C13.7342748,27.5018309 15.337447,27.4163214 16.9610786,27.3932391 L16.9610786,32.9356194 L16.9610786,32.9356194 Z M16.9610786,25.4983902 C15.1071484,25.523571 13.2768252,25.6242938 11.4800762,25.804231 C10.835345,23.7441337 10.4298306,21.3729497 10.3479932,18.8554028 L16.960554,18.8554028 L16.9610786,25.4983902 L16.9610786,25.4983902 L16.9610786,25.4983902 Z M16.9610786,16.9610786 L10.3479932,16.9610786 C10.4298306,14.4440563 10.8348204,12.0723476 11.4800762,10.012775 C13.2768252,10.1921876 15.107673,10.2923858 16.9610786,10.3186157 L16.9610786,16.9610786 L16.9610786,16.9610786 L16.9610786,16.9610786 Z M16.9610786,8.42481611 C15.337447,8.40120919 13.7342748,8.31622428 12.1562834,8.17195976 C13.3612855,5.34489988 15.0636068,3.38027949 16.9610786,2.88243577 L16.9610786,8.42481611 L16.9610786,8.42481611 Z M25.6447531,7.95792368 C24.98953,6.29232429 24.1716813,4.85440053 23.2284537,3.71916995 C25.3861262,4.53124802 27.3087787,5.82175967 28.8705077,7.46060456 C27.8102947,7.6568043 26.7353929,7.82152814 25.6447531,7.95792368 Z M18.8554028,2.88191117 C20.7528746,3.38027949 22.4562451,5.34437528 23.6607226,8.17143516 C22.0827311,8.31622428 20.4795589,8.40068459 18.8554028,8.42429151 L18.8554028,2.88191117 L18.8554028,2.88191117 Z M18.8554028,10.3191403 C20.709333,10.2929104 22.5396562,10.1921876 24.3369298,10.0132996 C24.981661,12.0728722 25.3871754,14.4445808 25.4684881,16.9616032 L18.8554028,16.9616032 L18.8554028,10.3191403 L18.8554028,10.3191403 Z M18.8554028,18.856452 L25.4690127,18.856452 C25.3871754,21.3729497 24.9811364,23.7446583 24.3374544,25.8047556 C22.5396562,25.6248184 20.709333,25.5256694 18.856452,25.4983902 L18.856452,18.856452 L18.8554028,18.856452 L18.8554028,18.856452 Z M18.8554028,32.9356194 L18.8554028,27.3921899 C20.4795589,27.4163214 22.0827311,27.5007817 23.6607226,27.6450462 C22.4562451,30.4721061 20.7528746,32.4362019 18.8554028,32.9356194 L18.8554028,32.9356194 Z M25.6447531,27.8585577 C26.7338191,27.9960024 27.8113439,28.1607263 28.8705077,28.3564014 C27.3087787,29.9947217 25.3861262,31.2862826 23.2284537,32.0973114 C24.1722059,30.9620809 24.98953,29.5246817 25.6447531,27.8585577 Z M26.2737464,26.0287591 C26.9048381,23.8852507 27.2904178,21.4568854 27.36596,18.8554028 L33.0321455,18.8554028 C32.8501099,21.766923 31.8434059,24.4565381 30.2428567,26.6970972 C28.9423777,26.4316505 27.6198655,26.2065979 26.2737464,26.0287591 Z M27.3654354,16.9610786 C27.2893686,14.3601205 26.9043135,11.9312307 26.2732218,9.78824692 C27.6182917,9.61040812 28.9423777,9.38483088 30.2423321,9.11885957 C31.8434059,11.3594186 32.8501099,14.0495584 33.0310963,16.9610786 L27.3654354,16.9610786 Z" id="ic_globe" fill="#DCE4EE"></path>
                    <g id="ic_search" transform="translate(14.000000, 10.000000)">
                        <polygon id="Bounds" fill-opacity="0.1" fill="#FF0000" opacity="0" points="0 0 30 0 30 30 0 30"></polygon>
                        <path d="M19.375,17.5 L18.3875,17.5 L18.0375,17.1625 C19.2625,15.7375 20,13.8875 20,11.875 C20,7.3875 16.3625,3.75 11.875,3.75 C7.3875,3.75 3.75,7.3875 3.75,11.875 C3.75,16.3625 7.3875,20 11.875,20 C13.8875,20 15.7375,19.2625 17.1625,18.0375 L17.5,18.3875 L17.5,19.375 L23.75,25.6125 L25.6125,23.75 L19.375,17.5 L19.375,17.5 Z" id="Shape" fill="#DCE4EE"></path>
                        <path d="M11.875,17.5 C8.7625,17.5 6.25,14.9875 6.25,11.875 C6.25,8.7625 8.7625,6.25 11.875,6.25 C14.9875,6.25 17.5,8.7625 17.5,11.875 C17.5,14.9875 14.9875,17.5 11.875,17.5 L11.875,17.5 Z" id="Path" fill="#122E51"></path>
                    </g>
                </g>
            </g>
        </g>
    </g>
</svg>